<?xml version="1.0" encoding="UTF-8" standalone="no"?>
<!-- Created with Inkscape (http://www.inkscape.org/) -->

<svg
   xmlns:dc="http://purl.org/dc/elements/1.1/"
   xmlns:cc="http://creativecommons.org/ns#"
   xmlns:rdf="http://www.w3.org/1999/02/22-rdf-syntax-ns#"
   xmlns:svg="http://www.w3.org/2000/svg"
   xmlns="http://www.w3.org/2000/svg"
   xmlns:sodipodi="http://sodipodi.sourceforge.net/DTD/sodipodi-0.dtd"
   xmlns:inkscape="http://www.inkscape.org/namespaces/inkscape"
   id="svg2"
   version="1.1"
   inkscape:version="0.48.5 r10040"
   width="630"
   height="630"
   xml:space="preserve"
   sodipodi:docname="lin.eps"><metadata
     id="metadata8"><rdf:RDF><cc:Work
         rdf:about=""><dc:format>image/svg+xml</dc:format><dc:type
           rdf:resource="http://purl.org/dc/dcmitype/StillImage" /><dc:title></dc:title></cc:Work></rdf:RDF></metadata><defs
     id="defs6"><clipPath
       clipPathUnits="userSpaceOnUse"
       id="clipPath22"><path
         d="m 579,372.801 3256.3,0 0,4523.2 -3256.3,0 0,-4523.2 z"
         id="path24" /></clipPath></defs><sodipodi:namedview
     pagecolor="#ffffff"
     bordercolor="#666666"
     borderopacity="1"
     objecttolerance="10"
     gridtolerance="10"
     guidetolerance="10"
     inkscape:pageopacity="0"
     inkscape:pageshadow="2"
     inkscape:window-width="1858"
     inkscape:window-height="1433"
     id="namedview4"
     showgrid="false"
     inkscape:zoom="1"
     inkscape:cx="315"
     inkscape:cy="315"
     inkscape:window-x="0"
     inkscape:window-y="0"
     inkscape:window-maximized="0"
     inkscape:current-layer="g10" /><g
     id="g10"
     inkscape:groupmode="layer"
     inkscape:label="ink_ext_XXXXXX"
     transform="matrix(1.25,0,0,-1.25,0,630)"><path
       inkscape:connector-curvature="0"
       id="path14"
       style="fill:#ffffff;fill-opacity:1;fill-rule:nonzero;stroke:none"
       d="M 0,0 504,0 504,504 0,504 0,0 z" /><path
       inkscape:connector-curvature="0"
       id="path16"
       style="fill:none;stroke:#ffffff;stroke-width:1.06000006;stroke-linecap:round;stroke-linejoin:round;stroke-miterlimit:10;stroke-opacity:1;stroke-dasharray:none"
       d="M 0,0 504,0 504,504 0,504 0,0 z" /><path
       inkscape:connector-curvature="0"
       id="path26"
       style="fill:#e5e5e5;fill-opacity:1;fill-rule:nonzero;stroke:none"
       d="m 57.9,37.2801 325.62,0 0,452.32 -325.62,0 0,-452.32 z" /><path
       inkscape:connector-curvature="0"
       id="path28"
       style="fill:none;stroke:#f2f2f2;stroke-width:0.53000003;stroke-linecap:butt;stroke-linejoin:round;stroke-miterlimit:10;stroke-opacity:1;stroke-dasharray:none"
       d="m 57.9,127.44 325.63,0" /><path
       inkscape:connector-curvature="0"
       id="path30"
       style="fill:none;stroke:#f2f2f2;stroke-width:0.53000003;stroke-linecap:butt;stroke-linejoin:round;stroke-miterlimit:10;stroke-opacity:1;stroke-dasharray:none"
       d="m 57.9,266.65 325.63,0" /><path
       inkscape:connector-curvature="0"
       id="path32"
       style="fill:none;stroke:#f2f2f2;stroke-width:0.53000003;stroke-linecap:butt;stroke-linejoin:round;stroke-miterlimit:10;stroke-opacity:1;stroke-dasharray:none"
       d="m 57.9,405.85 325.63,0" /><path
       inkscape:connector-curvature="0"
       id="path34"
       style="fill:none;stroke:#f2f2f2;stroke-width:0.53000003;stroke-linecap:butt;stroke-linejoin:round;stroke-miterlimit:10;stroke-opacity:1;stroke-dasharray:none"
       d="m 116.64,37.2801 0,452.3199" /><path
       inkscape:connector-curvature="0"
       id="path36"
       style="fill:none;stroke:#f2f2f2;stroke-width:0.53000003;stroke-linecap:butt;stroke-linejoin:round;stroke-miterlimit:10;stroke-opacity:1;stroke-dasharray:none"
       d="m 186.02,37.2801 0,452.3199" /><path
       inkscape:connector-curvature="0"
       id="path38"
       style="fill:none;stroke:#f2f2f2;stroke-width:0.53000003;stroke-linecap:butt;stroke-linejoin:round;stroke-miterlimit:10;stroke-opacity:1;stroke-dasharray:none"
       d="m 255.4,37.2801 0,452.3199" /><path
       inkscape:connector-curvature="0"
       id="path40"
       style="fill:none;stroke:#f2f2f2;stroke-width:0.53000003;stroke-linecap:butt;stroke-linejoin:round;stroke-miterlimit:10;stroke-opacity:1;stroke-dasharray:none"
       d="m 324.78,37.2801 0,452.3199" /><path
       inkscape:connector-curvature="0"
       id="path42"
       style="fill:none;stroke:#ffffff;stroke-width:1.06000006;stroke-linecap:butt;stroke-linejoin:round;stroke-miterlimit:10;stroke-opacity:1;stroke-dasharray:none"
       d="m 57.9,57.8398 325.63,0" /><path
       inkscape:connector-curvature="0"
       id="path44"
       style="fill:none;stroke:#ffffff;stroke-width:1.06000006;stroke-linecap:butt;stroke-linejoin:round;stroke-miterlimit:10;stroke-opacity:1;stroke-dasharray:none"
       d="m 57.9,197.05 325.63,0" /><path
       inkscape:connector-curvature="0"
       id="path46"
       style="fill:none;stroke:#ffffff;stroke-width:1.06000006;stroke-linecap:butt;stroke-linejoin:round;stroke-miterlimit:10;stroke-opacity:1;stroke-dasharray:none"
       d="m 57.9,336.25 325.63,0" /><path
       inkscape:connector-curvature="0"
       id="path48"
       style="fill:none;stroke:#ffffff;stroke-width:1.06000006;stroke-linecap:butt;stroke-linejoin:round;stroke-miterlimit:10;stroke-opacity:1;stroke-dasharray:none"
       d="m 57.9,475.46 325.63,0" /><path
       inkscape:connector-curvature="0"
       id="path50"
       style="fill:none;stroke:#ffffff;stroke-width:1.06000006;stroke-linecap:butt;stroke-linejoin:round;stroke-miterlimit:10;stroke-opacity:1;stroke-dasharray:none"
       d="m 81.95,37.2801 0,452.3199" /><path
       inkscape:connector-curvature="0"
       id="path52"
       style="fill:none;stroke:#ffffff;stroke-width:1.06000006;stroke-linecap:butt;stroke-linejoin:round;stroke-miterlimit:10;stroke-opacity:1;stroke-dasharray:none"
       d="m 151.33,37.2801 0,452.3199" /><path
       inkscape:connector-curvature="0"
       id="path54"
       style="fill:none;stroke:#ffffff;stroke-width:1.06000006;stroke-linecap:butt;stroke-linejoin:round;stroke-miterlimit:10;stroke-opacity:1;stroke-dasharray:none"
       d="m 220.71,37.2801 0,452.3199" /><path
       inkscape:connector-curvature="0"
       id="path56"
       style="fill:none;stroke:#ffffff;stroke-width:1.06000006;stroke-linecap:butt;stroke-linejoin:round;stroke-miterlimit:10;stroke-opacity:1;stroke-dasharray:none"
       d="m 290.09,37.2801 0,452.3199" /><path
       inkscape:connector-curvature="0"
       id="path58"
       style="fill:none;stroke:#ffffff;stroke-width:1.06000006;stroke-linecap:butt;stroke-linejoin:round;stroke-miterlimit:10;stroke-opacity:1;stroke-dasharray:none"
       d="m 359.47,37.2801 0,452.3199" /><path
       inkscape:connector-curvature="0"
       id="path60"
       style="fill:#f8766d;fill-opacity:1;fill-rule:nonzero;stroke:none"
       d="m 72.7,57.8398 9.25,0 0,0 -9.25,0 z" /><path
       inkscape:connector-curvature="0"
       id="path62"
       style="fill:#7dae00;fill-opacity:1;fill-rule:nonzero;stroke:none"
       d="m 72.7,57.8398 9.25,0 0,0 -9.25,0 z" /><path
       inkscape:connector-curvature="0"
       id="path64"
       style="fill:#00bfc4;fill-opacity:1;fill-rule:nonzero;stroke:none"
       d="m 72.7,57.8398 9.25,0 0,0 -9.25,0 z" /><path
       inkscape:connector-curvature="0"
       id="path66"
       style="fill:#c77bff;fill-opacity:1;fill-rule:nonzero;stroke:none"
       d="m 72.7,57.8398 9.25,0 0,0 -9.25,0 z" /><path
       inkscape:connector-curvature="0"
       id="path68"
       style="fill:#f8766d;fill-opacity:1;fill-rule:nonzero;stroke:none"
       d="m 81.95,57.8398 9.25,0 0,146.69 -9.25,0 0,-146.69 z" /><path
       inkscape:connector-curvature="0"
       id="path70"
       style="fill:#7dae00;fill-opacity:1;fill-rule:nonzero;stroke:none"
       d="m 81.95,204.54 9.25,0 0,135.01 -9.25,0 0,-135.01 z" /><path
       inkscape:connector-curvature="0"
       id="path72"
       style="fill:#00bfc4;fill-opacity:1;fill-rule:nonzero;stroke:none"
       d="m 81.95,339.54 9.25,0 0,83.5203 -9.25,0 0,-83.5203 z" /><path
       inkscape:connector-curvature="0"
       id="path74"
       style="fill:#c77bff;fill-opacity:1;fill-rule:nonzero;stroke:none"
       d="m 81.95,423.06 9.25,0 0,45.9797 -9.25,0 0,-45.9797 z" /><path
       inkscape:connector-curvature="0"
       id="path76"
       style="fill:#f8766d;fill-opacity:1;fill-rule:nonzero;stroke:none"
       d="m 91.2102,57.8398 9.25,0 0,35.8703 -9.25,0 0,-35.8703 z" /><path
       inkscape:connector-curvature="0"
       id="path78"
       style="fill:#7dae00;fill-opacity:1;fill-rule:nonzero;stroke:none"
       d="m 91.2102,93.7102 9.25,0 0,35.0898 -9.25,0 0,-35.0898 z" /><path
       inkscape:connector-curvature="0"
       id="path80"
       style="fill:#00bfc4;fill-opacity:1;fill-rule:nonzero;stroke:none"
       d="m 91.2102,128.8 9.25,0 0,21.6 -9.25,0 0,-21.6 z" /><path
       inkscape:connector-curvature="0"
       id="path82"
       style="fill:#c77bff;fill-opacity:1;fill-rule:nonzero;stroke:none"
       d="m 91.2102,150.4 9.25,0 0,7.45 -9.25,0 0,-7.45 z" /><path
       inkscape:connector-curvature="0"
       id="path84"
       style="fill:#f8766d;fill-opacity:1;fill-rule:nonzero;stroke:none"
       d="m 100.46,57.8398 9.25,0 0,36.7402 -9.25,0 0,-36.7402 z" /><path
       inkscape:connector-curvature="0"
       id="path86"
       style="fill:#7dae00;fill-opacity:1;fill-rule:nonzero;stroke:none"
       d="m 100.46,94.5898 9.25,0 0,38.2402 -9.25,0 0,-38.2402 z" /><path
       inkscape:connector-curvature="0"
       id="path88"
       style="fill:#00bfc4;fill-opacity:1;fill-rule:nonzero;stroke:none"
       d="m 100.46,132.83 9.25,0 0,33.9 -9.25,0 0,-33.9 z" /><path
       inkscape:connector-curvature="0"
       id="path90"
       style="fill:#c77bff;fill-opacity:1;fill-rule:nonzero;stroke:none"
       d="m 100.46,166.73 9.25,0 0,17.4301 -9.25,0 0,-17.4301 z" /><path
       inkscape:connector-curvature="0"
       id="path92"
       style="fill:#f8766d;fill-opacity:1;fill-rule:nonzero;stroke:none"
       d="m 109.71,57.8398 9.25,0 0,30.5203 -9.25,0 0,-30.5203 z" /><path
       inkscape:connector-curvature="0"
       id="path94"
       style="fill:#7dae00;fill-opacity:1;fill-rule:nonzero;stroke:none"
       d="m 109.71,88.3602 9.25,0 0,33.2699 -9.25,0 0,-33.2699 z" /><path
       inkscape:connector-curvature="0"
       id="path96"
       style="fill:#00bfc4;fill-opacity:1;fill-rule:nonzero;stroke:none"
       d="m 109.71,121.63 9.25,0 0,38.75 -9.25,0 0,-38.75 z" /><path
       inkscape:connector-curvature="0"
       id="path98"
       style="fill:#c77bff;fill-opacity:1;fill-rule:nonzero;stroke:none"
       d="m 109.71,160.39 9.25,0 0,26.3 -9.25,0 0,-26.3 z" /><path
       inkscape:connector-curvature="0"
       id="path100"
       style="fill:#f8766d;fill-opacity:1;fill-rule:nonzero;stroke:none"
       d="m 118.96,57.8398 9.25,0 0,17.2102 -9.25,0 0,-17.2102 z" /><path
       inkscape:connector-curvature="0"
       id="path102"
       style="fill:#7dae00;fill-opacity:1;fill-rule:nonzero;stroke:none"
       d="m 118.96,75.05 9.25,0 0,19.3 -9.25,0 0,-19.3 z" /><path
       inkscape:connector-curvature="0"
       id="path104"
       style="fill:#00bfc4;fill-opacity:1;fill-rule:nonzero;stroke:none"
       d="m 118.96,94.35 9.25,0 0,28.4301 -9.25,0 0,-28.4301 z" /><path
       inkscape:connector-curvature="0"
       id="path106"
       style="fill:#c77bff;fill-opacity:1;fill-rule:nonzero;stroke:none"
       d="m 118.96,122.78 9.25,0 0,22.9898 -9.25,0 0,-22.9898 z" /><path
       inkscape:connector-curvature="0"
       id="path108"
       style="fill:#f8766d;fill-opacity:1;fill-rule:nonzero;stroke:none"
       d="m 128.21,57.8398 9.25,0 0,13.4102 -9.25,0 0,-13.4102 z" /><path
       inkscape:connector-curvature="0"
       id="path110"
       style="fill:#7dae00;fill-opacity:1;fill-rule:nonzero;stroke:none"
       d="m 128.21,71.25 9.25,0 0,15.2398 -9.25,0 0,-15.2398 z" /><path
       inkscape:connector-curvature="0"
       id="path112"
       style="fill:#00bfc4;fill-opacity:1;fill-rule:nonzero;stroke:none"
       d="m 128.21,86.4801 9.25,0 0,25.2 -9.25,0 0,-25.2 z" /><path
       inkscape:connector-curvature="0"
       id="path114"
       style="fill:#c77bff;fill-opacity:1;fill-rule:nonzero;stroke:none"
       d="m 128.21,111.68 9.25,0 0,26.5699 -9.25,0 0,-26.5699 z" /><path
       inkscape:connector-curvature="0"
       id="path116"
       style="fill:#f8766d;fill-opacity:1;fill-rule:nonzero;stroke:none"
       d="m 137.46,57.8398 9.25,0 0,10.0902 -9.25,0 0,-10.0902 z" /><path
       inkscape:connector-curvature="0"
       id="path118"
       style="fill:#7dae00;fill-opacity:1;fill-rule:nonzero;stroke:none"
       d="m 137.46,67.9301 9.25,0 0,11.7098 -9.25,0 0,-11.7098 z" /><path
       inkscape:connector-curvature="0"
       id="path120"
       style="fill:#00bfc4;fill-opacity:1;fill-rule:nonzero;stroke:none"
       d="m 137.46,79.6398 9.25,0 0,23.8902 -9.25,0 0,-23.8902 z" /><path
       inkscape:connector-curvature="0"
       id="path122"
       style="fill:#c77bff;fill-opacity:1;fill-rule:nonzero;stroke:none"
       d="m 137.46,103.53 9.25,0 0,31.8898 -9.25,0 0,-31.8898 z" /><path
       inkscape:connector-curvature="0"
       id="path124"
       style="fill:#f8766d;fill-opacity:1;fill-rule:nonzero;stroke:none"
       d="m 146.71,57.8398 9.25,0 0,5.35 -9.25,0 0,-5.35 z" /><path
       inkscape:connector-curvature="0"
       id="path126"
       style="fill:#7dae00;fill-opacity:1;fill-rule:nonzero;stroke:none"
       d="m 146.71,63.1898 9.25,0 0,6.19023 -9.25,0 0,-6.19023 z" /><path
       inkscape:connector-curvature="0"
       id="path128"
       style="fill:#00bfc4;fill-opacity:1;fill-rule:nonzero;stroke:none"
       d="m 146.71,69.3801 9.25,0 0,14.5098 -9.25,0 0,-14.5098 z" /><path
       inkscape:connector-curvature="0"
       id="path130"
       style="fill:#c77bff;fill-opacity:1;fill-rule:nonzero;stroke:none"
       d="m 146.71,83.8898 9.25,0 0,24.2102 -9.25,0 0,-24.2102 z" /><path
       inkscape:connector-curvature="0"
       id="path132"
       style="fill:#f8766d;fill-opacity:1;fill-rule:nonzero;stroke:none"
       d="m 155.96,57.8398 9.25,0 0,3.12031 -9.25,0 0,-3.12031 z" /><path
       inkscape:connector-curvature="0"
       id="path134"
       style="fill:#7dae00;fill-opacity:1;fill-rule:nonzero;stroke:none"
       d="m 155.96,60.9602 9.25,0 0,3.8 -9.25,0 0,-3.8 z" /><path
       inkscape:connector-curvature="0"
       id="path136"
       style="fill:#00bfc4;fill-opacity:1;fill-rule:nonzero;stroke:none"
       d="m 155.96,64.7602 9.25,0 0,9.92969 -9.25,0 0,-9.92969 z" /><path
       inkscape:connector-curvature="0"
       id="path138"
       style="fill:#c77bff;fill-opacity:1;fill-rule:nonzero;stroke:none"
       d="m 155.96,74.6898 9.25,0 0,20.95 -9.25,0 0,-20.95 z" /><path
       inkscape:connector-curvature="0"
       id="path140"
       style="fill:#f8766d;fill-opacity:1;fill-rule:nonzero;stroke:none"
       d="m 165.21,57.8398 9.25,0 0,1.27031 -9.25,0 0,-1.27031 z" /><path
       inkscape:connector-curvature="0"
       id="path142"
       style="fill:#7dae00;fill-opacity:1;fill-rule:nonzero;stroke:none"
       d="m 165.21,59.1102 9.25,0 0,1.55 -9.25,0 0,-1.55 z" /><path
       inkscape:connector-curvature="0"
       id="path144"
       style="fill:#00bfc4;fill-opacity:1;fill-rule:nonzero;stroke:none"
       d="m 165.21,60.6602 9.25,0 0,5.63984 -9.25,0 0,-5.63984 z" /><path
       inkscape:connector-curvature="0"
       id="path146"
       style="fill:#c77bff;fill-opacity:1;fill-rule:nonzero;stroke:none"
       d="m 165.21,66.3 9.25,0 0,14.6301 -9.25,0 0,-14.6301 z" /><path
       inkscape:connector-curvature="0"
       id="path148"
       style="fill:#f8766d;fill-opacity:1;fill-rule:nonzero;stroke:none"
       d="m 174.46,57.8398 9.25,0 0,2.75 -9.25,0 0,-2.75 z" /><path
       inkscape:connector-curvature="0"
       id="path150"
       style="fill:#7dae00;fill-opacity:1;fill-rule:nonzero;stroke:none"
       d="m 174.46,60.5898 9.25,0 0,3.06016 -9.25,0 0,-3.06016 z" /><path
       inkscape:connector-curvature="0"
       id="path152"
       style="fill:#00bfc4;fill-opacity:1;fill-rule:nonzero;stroke:none"
       d="m 174.46,63.65 9.25,0 0,8.18984 -9.25,0 0,-8.18984 z" /><path
       inkscape:connector-curvature="0"
       id="path154"
       style="fill:#c77bff;fill-opacity:1;fill-rule:nonzero;stroke:none"
       d="m 174.46,71.8301 9.25,0 0,20.7699 -9.25,0 0,-20.7699 z" /><path
       inkscape:connector-curvature="0"
       id="path156"
       style="fill:#f8766d;fill-opacity:1;fill-rule:nonzero;stroke:none"
       d="m 183.71,57.8398 9.25,0 0,0.580078 -9.25,0 0,-0.580078 z" /><path
       inkscape:connector-curvature="0"
       id="path158"
       style="fill:#7dae00;fill-opacity:1;fill-rule:nonzero;stroke:none"
       d="m 183.71,58.4301 9.25,0 0,0.7 -9.25,0 0,-0.7 z" /><path
       inkscape:connector-curvature="0"
       id="path160"
       style="fill:#00bfc4;fill-opacity:1;fill-rule:nonzero;stroke:none"
       d="m 183.71,59.1301 9.25,0 0,2.58008 -9.25,0 0,-2.58008 z" /><path
       inkscape:connector-curvature="0"
       id="path162"
       style="fill:#c77bff;fill-opacity:1;fill-rule:nonzero;stroke:none"
       d="m 183.71,61.7102 9.25,0 0,9.68984 -9.25,0 0,-9.68984 z" /><path
       inkscape:connector-curvature="0"
       id="path164"
       style="fill:#f8766d;fill-opacity:1;fill-rule:nonzero;stroke:none"
       d="m 192.96,57.8398 9.25,0 0,1 -9.25,0 0,-1 z" /><path
       inkscape:connector-curvature="0"
       id="path166"
       style="fill:#7dae00;fill-opacity:1;fill-rule:nonzero;stroke:none"
       d="m 192.96,58.8398 9.25,0 0,1.15 -9.25,0 0,-1.15 z" /><path
       inkscape:connector-curvature="0"
       id="path168"
       style="fill:#00bfc4;fill-opacity:1;fill-rule:nonzero;stroke:none"
       d="m 192.96,59.9898 9.25,0 0,3.54023 -9.25,0 0,-3.54023 z" /><path
       inkscape:connector-curvature="0"
       id="path170"
       style="fill:#c77bff;fill-opacity:1;fill-rule:nonzero;stroke:none"
       d="m 192.96,63.5301 9.25,0 0,11.6699 -9.25,0 0,-11.6699 z" /><path
       inkscape:connector-curvature="0"
       id="path172"
       style="fill:#f8766d;fill-opacity:1;fill-rule:nonzero;stroke:none"
       d="m 202.21,57.8398 9.25,0 0,0.240234 -9.25,0 0,-0.240234 z" /><path
       inkscape:connector-curvature="0"
       id="path174"
       style="fill:#7dae00;fill-opacity:1;fill-rule:nonzero;stroke:none"
       d="m 202.21,58.0801 9.25,0 0,0.3 -9.25,0 0,-0.3 z" /><path
       inkscape:connector-curvature="0"
       id="path176"
       style="fill:#00bfc4;fill-opacity:1;fill-rule:nonzero;stroke:none"
       d="m 202.21,58.3801 9.25,0 0,1.2 -9.25,0 0,-1.2 z" /><path
       inkscape:connector-curvature="0"
       id="path178"
       style="fill:#c77bff;fill-opacity:1;fill-rule:nonzero;stroke:none"
       d="m 202.21,59.5801 9.25,0 0,6.15 -9.25,0 0,-6.15 z" /><path
       inkscape:connector-curvature="0"
       id="path180"
       style="fill:#f8766d;fill-opacity:1;fill-rule:nonzero;stroke:none"
       d="m 211.46,57.8398 9.25,0 0,0.06016 -9.25,0 0,-0.06016 z" /><path
       inkscape:connector-curvature="0"
       id="path182"
       style="fill:#7dae00;fill-opacity:1;fill-rule:nonzero;stroke:none"
       d="m 211.46,57.9102 9.25,0 0,0.07969 -9.25,0 0,-0.07969 z" /><path
       inkscape:connector-curvature="0"
       id="path184"
       style="fill:#00bfc4;fill-opacity:1;fill-rule:nonzero;stroke:none"
       d="m 211.46,57.9898 9.25,0 0,0.410156 -9.25,0 0,-0.410156 z" /><path
       inkscape:connector-curvature="0"
       id="path186"
       style="fill:#c77bff;fill-opacity:1;fill-rule:nonzero;stroke:none"
       d="m 211.46,58.4 9.25,0 0,2.8 -9.25,0 0,-2.8 z" /><path
       inkscape:connector-curvature="0"
       id="path188"
       style="fill:#f8766d;fill-opacity:1;fill-rule:nonzero;stroke:none"
       d="m 220.71,57.8398 9.25,0 0,0.810156 -9.25,0 0,-0.810156 z" /><path
       inkscape:connector-curvature="0"
       id="path190"
       style="fill:#7dae00;fill-opacity:1;fill-rule:nonzero;stroke:none"
       d="m 220.71,58.6602 9.25,0 0,0.969922 -9.25,0 0,-0.969922 z" /><path
       inkscape:connector-curvature="0"
       id="path192"
       style="fill:#00bfc4;fill-opacity:1;fill-rule:nonzero;stroke:none"
       d="m 220.71,59.6199 9.25,0 0,2.51016 -9.25,0 0,-2.51016 z" /><path
       inkscape:connector-curvature="0"
       id="path194"
       style="fill:#c77bff;fill-opacity:1;fill-rule:nonzero;stroke:none"
       d="m 220.71,62.1398 9.25,0 0,6.72031 -9.25,0 0,-6.72031 z" /><path
       inkscape:connector-curvature="0"
       id="path196"
       style="fill:#f8766d;fill-opacity:1;fill-rule:nonzero;stroke:none"
       d="m 229.97,57.8398 9.25,0 0,0.08008 -9.25,0 0,-0.08008 z" /><path
       inkscape:connector-curvature="0"
       id="path198"
       style="fill:#7dae00;fill-opacity:1;fill-rule:nonzero;stroke:none"
       d="m 229.97,57.9301 9.25,0 0,0.08984 -9.25,0 0,-0.08984 z" /><path
       inkscape:connector-curvature="0"
       id="path200"
       style="fill:#00bfc4;fill-opacity:1;fill-rule:nonzero;stroke:none"
       d="m 229.97,58.0199 9.25,0 0,0.530078 -9.25,0 0,-0.530078 z" /><path
       inkscape:connector-curvature="0"
       id="path202"
       style="fill:#c77bff;fill-opacity:1;fill-rule:nonzero;stroke:none"
       d="m 229.97,58.55 9.25,0 0,2.26016 -9.25,0 0,-2.26016 z" /><path
       inkscape:connector-curvature="0"
       id="path204"
       style="fill:#f8766d;fill-opacity:1;fill-rule:nonzero;stroke:none"
       d="m 239.22,57.8398 9.25,0 0,0.03008 -9.25,0 0,-0.03008 z" /><path
       inkscape:connector-curvature="0"
       id="path206"
       style="fill:#7dae00;fill-opacity:1;fill-rule:nonzero;stroke:none"
       d="m 239.22,57.8801 9.25,0 0,0.03008 -9.25,0 0,-0.03008 z" /><path
       inkscape:connector-curvature="0"
       id="path208"
       style="fill:#00bfc4;fill-opacity:1;fill-rule:nonzero;stroke:none"
       d="m 239.22,57.9102 9.25,0 0,0.35 -9.25,0 0,-0.35 z" /><path
       inkscape:connector-curvature="0"
       id="path210"
       style="fill:#c77bff;fill-opacity:1;fill-rule:nonzero;stroke:none"
       d="m 239.22,58.2602 9.25,0 0,1.61992 -9.25,0 0,-1.61992 z" /><path
       inkscape:connector-curvature="0"
       id="path212"
       style="fill:#f8766d;fill-opacity:1;fill-rule:nonzero;stroke:none"
       d="m 248.47,57.8398 9.25,0 0,0.08008 -9.25,0 0,-0.08008 z" /><path
       inkscape:connector-curvature="0"
       id="path214"
       style="fill:#7dae00;fill-opacity:1;fill-rule:nonzero;stroke:none"
       d="m 248.47,57.9199 9.25,0 0,0.08008 -9.25,0 0,-0.08008 z" /><path
       inkscape:connector-curvature="0"
       id="path216"
       style="fill:#00bfc4;fill-opacity:1;fill-rule:nonzero;stroke:none"
       d="m 248.47,58 9.25,0 0,0.419922 -9.25,0 0,-0.419922 z" /><path
       inkscape:connector-curvature="0"
       id="path218"
       style="fill:#c77bff;fill-opacity:1;fill-rule:nonzero;stroke:none"
       d="m 248.47,58.4301 9.25,0 0,1.93984 -9.25,0 0,-1.93984 z" /><path
       inkscape:connector-curvature="0"
       id="path220"
       style="fill:#f8766d;fill-opacity:1;fill-rule:nonzero;stroke:none"
       d="m 257.72,57.8398 9.25,0 0,0.01016 -9.25,0 0,-0.01016 z" /><path
       inkscape:connector-curvature="0"
       id="path222"
       style="fill:#7dae00;fill-opacity:1;fill-rule:nonzero;stroke:none"
       d="m 257.72,57.85 9.25,0 0,0.01016 -9.25,0 0,-0.01016 z" /><path
       inkscape:connector-curvature="0"
       id="path224"
       style="fill:#00bfc4;fill-opacity:1;fill-rule:nonzero;stroke:none"
       d="m 257.72,57.8602 9.25,0 0,0.05 -9.25,0 0,-0.05 z" /><path
       inkscape:connector-curvature="0"
       id="path226"
       style="fill:#c77bff;fill-opacity:1;fill-rule:nonzero;stroke:none"
       d="m 257.72,57.9102 9.25,0 0,0.469922 -9.25,0 0,-0.469922 z" /><path
       inkscape:connector-curvature="0"
       id="path228"
       style="fill:#f8766d;fill-opacity:1;fill-rule:nonzero;stroke:none"
       d="m 266.97,57.8398 9.25,0 0,0.1 -9.25,0 0,-0.1 z" /><path
       inkscape:connector-curvature="0"
       id="path230"
       style="fill:#7dae00;fill-opacity:1;fill-rule:nonzero;stroke:none"
       d="m 266.97,57.95 9.25,0 0,0.110156 -9.25,0 0,-0.110156 z" /><path
       inkscape:connector-curvature="0"
       id="path232"
       style="fill:#00bfc4;fill-opacity:1;fill-rule:nonzero;stroke:none"
       d="m 266.97,58.0602 9.25,0 0,0.429688 -9.25,0 0,-0.429688 z" /><path
       inkscape:connector-curvature="0"
       id="path234"
       style="fill:#c77bff;fill-opacity:1;fill-rule:nonzero;stroke:none"
       d="m 266.97,58.4898 9.25,0 0,1.32031 -9.25,0 0,-1.32031 z" /><path
       inkscape:connector-curvature="0"
       id="path236"
       style="fill:#f8766d;fill-opacity:1;fill-rule:nonzero;stroke:none"
       d="m 276.22,57.8398 9.25,0 0,0.01016 -9.25,0 0,-0.01016 z" /><path
       inkscape:connector-curvature="0"
       id="path238"
       style="fill:#7dae00;fill-opacity:1;fill-rule:nonzero;stroke:none"
       d="m 276.22,57.85 9.25,0 0,0.01016 -9.25,0 0,-0.01016 z" /><path
       inkscape:connector-curvature="0"
       id="path240"
       style="fill:#00bfc4;fill-opacity:1;fill-rule:nonzero;stroke:none"
       d="m 276.22,57.8602 9.25,0 0,0.07969 -9.25,0 0,-0.07969 z" /><path
       inkscape:connector-curvature="0"
       id="path242"
       style="fill:#c77bff;fill-opacity:1;fill-rule:nonzero;stroke:none"
       d="m 276.22,57.9398 9.25,0 0,0.620313 -9.25,0 0,-0.620313 z" /><path
       inkscape:connector-curvature="0"
       id="path244"
       style="fill:#f8766d;fill-opacity:1;fill-rule:nonzero;stroke:none"
       d="m 285.47,57.8398 9.25,0 0,0.01016 -9.25,0 0,-0.01016 z" /><path
       inkscape:connector-curvature="0"
       id="path246"
       style="fill:#7dae00;fill-opacity:1;fill-rule:nonzero;stroke:none"
       d="m 285.47,57.8602 9.25,0 0,0.0098 -9.25,0 0,-0.0098 z" /><path
       inkscape:connector-curvature="0"
       id="path248"
       style="fill:#00bfc4;fill-opacity:1;fill-rule:nonzero;stroke:none"
       d="m 285.47,57.8699 9.25,0 0,0.1 -9.25,0 0,-0.1 z" /><path
       inkscape:connector-curvature="0"
       id="path250"
       style="fill:#c77bff;fill-opacity:1;fill-rule:nonzero;stroke:none"
       d="m 285.47,57.9699 9.25,0 0,0.480078 -9.25,0 0,-0.480078 z" /><path
       inkscape:connector-curvature="0"
       id="path252"
       style="fill:#f8766d;fill-opacity:1;fill-rule:nonzero;stroke:none"
       d="m 294.72,57.8398 9.25,0 0,0 -9.25,0 z" /><path
       inkscape:connector-curvature="0"
       id="path254"
       style="fill:#7dae00;fill-opacity:1;fill-rule:nonzero;stroke:none"
       d="m 294.72,57.8398 9.25,0 0,0 -9.25,0 z" /><path
       inkscape:connector-curvature="0"
       id="path256"
       style="fill:#00bfc4;fill-opacity:1;fill-rule:nonzero;stroke:none"
       d="m 294.72,57.8398 9.25,0 0,0.03008 -9.25,0 0,-0.03008 z" /><path
       inkscape:connector-curvature="0"
       id="path258"
       style="fill:#c77bff;fill-opacity:1;fill-rule:nonzero;stroke:none"
       d="m 294.72,57.8699 9.25,0 0,0.15 -9.25,0 0,-0.15 z" /><path
       inkscape:connector-curvature="0"
       id="path260"
       style="fill:#f8766d;fill-opacity:1;fill-rule:nonzero;stroke:none"
       d="m 303.97,57.8398 9.25,0 0,0.01016 -9.25,0 0,-0.01016 z" /><path
       inkscape:connector-curvature="0"
       id="path262"
       style="fill:#7dae00;fill-opacity:1;fill-rule:nonzero;stroke:none"
       d="m 303.97,57.8602 9.25,0 0,0.0098 -9.25,0 0,-0.0098 z" /><path
       inkscape:connector-curvature="0"
       id="path264"
       style="fill:#00bfc4;fill-opacity:1;fill-rule:nonzero;stroke:none"
       d="m 303.97,57.8699 9.25,0 0,0.04023 -9.25,0 0,-0.04023 z" /><path
       inkscape:connector-curvature="0"
       id="path266"
       style="fill:#c77bff;fill-opacity:1;fill-rule:nonzero;stroke:none"
       d="m 303.97,57.9102 9.25,0 0,0.259766 -9.25,0 0,-0.259766 z" /><path
       inkscape:connector-curvature="0"
       id="path268"
       style="fill:#f8766d;fill-opacity:1;fill-rule:nonzero;stroke:none"
       d="m 313.22,57.8398 9.25,0 0,0 -9.25,0 z" /><path
       inkscape:connector-curvature="0"
       id="path270"
       style="fill:#7dae00;fill-opacity:1;fill-rule:nonzero;stroke:none"
       d="m 313.22,57.8398 9.25,0 0,0 -9.25,0 z" /><path
       inkscape:connector-curvature="0"
       id="path272"
       style="fill:#00bfc4;fill-opacity:1;fill-rule:nonzero;stroke:none"
       d="m 313.22,57.8398 9.25,0 0,0.03008 -9.25,0 0,-0.03008 z" /><path
       inkscape:connector-curvature="0"
       id="path274"
       style="fill:#c77bff;fill-opacity:1;fill-rule:nonzero;stroke:none"
       d="m 313.22,57.8699 9.25,0 0,0.219922 -9.25,0 0,-0.219922 z" /><path
       inkscape:connector-curvature="0"
       id="path276"
       style="fill:#f8766d;fill-opacity:1;fill-rule:nonzero;stroke:none"
       d="m 322.47,57.8398 9.25,0 0,0 -9.25,0 z" /><path
       inkscape:connector-curvature="0"
       id="path278"
       style="fill:#7dae00;fill-opacity:1;fill-rule:nonzero;stroke:none"
       d="m 322.47,57.8398 9.25,0 0,0 -9.25,0 z" /><path
       inkscape:connector-curvature="0"
       id="path280"
       style="fill:#00bfc4;fill-opacity:1;fill-rule:nonzero;stroke:none"
       d="m 322.47,57.8398 9.25,0 0,0.01016 -9.25,0 0,-0.01016 z" /><path
       inkscape:connector-curvature="0"
       id="path282"
       style="fill:#c77bff;fill-opacity:1;fill-rule:nonzero;stroke:none"
       d="m 322.47,57.8602 9.25,0 0,0.08984 -9.25,0 0,-0.08984 z" /><path
       inkscape:connector-curvature="0"
       id="path284"
       style="fill:#f8766d;fill-opacity:1;fill-rule:nonzero;stroke:none"
       d="m 331.72,57.8398 9.25,0 0,0 -9.25,0 z" /><path
       inkscape:connector-curvature="0"
       id="path286"
       style="fill:#7dae00;fill-opacity:1;fill-rule:nonzero;stroke:none"
       d="m 331.72,57.8398 9.25,0 0,0 -9.25,0 z" /><path
       inkscape:connector-curvature="0"
       id="path288"
       style="fill:#00bfc4;fill-opacity:1;fill-rule:nonzero;stroke:none"
       d="m 331.72,57.8398 9.25,0 0,0 -9.25,0 z" /><path
       inkscape:connector-curvature="0"
       id="path290"
       style="fill:#c77bff;fill-opacity:1;fill-rule:nonzero;stroke:none"
       d="m 331.72,57.8398 9.25,0 0,0.01016 -9.25,0 0,-0.01016 z" /><path
       inkscape:connector-curvature="0"
       id="path292"
       style="fill:#f8766d;fill-opacity:1;fill-rule:nonzero;stroke:none"
       d="m 340.97,57.8398 9.25,0 0,0 -9.25,0 z" /><path
       inkscape:connector-curvature="0"
       id="path294"
       style="fill:#7dae00;fill-opacity:1;fill-rule:nonzero;stroke:none"
       d="m 340.97,57.8398 9.25,0 0,0 -9.25,0 z" /><path
       inkscape:connector-curvature="0"
       id="path296"
       style="fill:#00bfc4;fill-opacity:1;fill-rule:nonzero;stroke:none"
       d="m 340.97,57.8398 9.25,0 0,0 -9.25,0 z" /><path
       inkscape:connector-curvature="0"
       id="path298"
       style="fill:#c77bff;fill-opacity:1;fill-rule:nonzero;stroke:none"
       d="m 340.97,57.8398 9.25,0 0,0 -9.25,0 z" /><path
       inkscape:connector-curvature="0"
       id="path300"
       style="fill:#f8766d;fill-opacity:1;fill-rule:nonzero;stroke:none"
       d="m 350.22,57.8398 9.25,0 0,0 -9.25,0 z" /><path
       inkscape:connector-curvature="0"
       id="path302"
       style="fill:#7dae00;fill-opacity:1;fill-rule:nonzero;stroke:none"
       d="m 350.22,57.8398 9.25,0 0,0 -9.25,0 z" /><path
       inkscape:connector-curvature="0"
       id="path304"
       style="fill:#00bfc4;fill-opacity:1;fill-rule:nonzero;stroke:none"
       d="m 350.22,57.8398 9.25,0 0,0 -9.25,0 z" /><path
       inkscape:connector-curvature="0"
       id="path306"
       style="fill:#c77bff;fill-opacity:1;fill-rule:nonzero;stroke:none"
       d="m 350.22,57.8398 9.25,0 0,0 -9.25,0 z" /><path
       inkscape:connector-curvature="0"
       id="path308"
       style="fill:#f8766d;fill-opacity:1;fill-rule:nonzero;stroke:none"
       d="m 359.47,57.8398 9.25,0 0,0.09023 -9.25,0 0,-0.09023 z" /><path
       inkscape:connector-curvature="0"
       id="path310"
       style="fill:#7dae00;fill-opacity:1;fill-rule:nonzero;stroke:none"
       d="m 359.47,57.9301 9.25,0 0,0.1 -9.25,0 0,-0.1 z" /><path
       inkscape:connector-curvature="0"
       id="path312"
       style="fill:#00bfc4;fill-opacity:1;fill-rule:nonzero;stroke:none"
       d="m 359.47,58.0301 9.25,0 0,0.259766 -9.25,0 0,-0.259766 z" /><path
       inkscape:connector-curvature="0"
       id="path314"
       style="fill:#c77bff;fill-opacity:1;fill-rule:nonzero;stroke:none"
       d="m 359.47,58.2898 9.25,0 0,0.470313 -9.25,0 0,-0.470313 z" /><text
       transform="scale(1,-1)"
       id="text318"
       x="45.260201"
       y="-54.25"
       sodipodi:linespacing="125%"><tspan
         style="font-size:12px;font-variant:normal;font-weight:normal;writing-mode:lr;fill:#7f7f7f;fill-opacity:1;fill-rule:nonzero;stroke:none;font-family:Latin Modern Sans;-inkscape-font-specification:Latin Modern Sans;font-style:normal;font-stretch:normal;text-anchor:start;text-align:start;line-height:125%"
         x="45.260201"
         y="-54.25"
         id="tspan320">0</tspan><tspan
         style="font-size:12px;font-variant:normal;font-weight:normal;writing-mode:lr;fill:#7f7f7f;fill-opacity:1;fill-rule:nonzero;stroke:none;font-family:Latin Modern Sans;-inkscape-font-specification:Latin Modern Sans;font-style:normal;font-stretch:normal;text-anchor:start;text-align:start;line-height:125%"
         x="23.021101 28.5811 34.141102 39.701099 45.261101"
         y="-193.46001"
         sodipodi:role="line"
         id="tspan322">20000</tspan><tspan
         style="font-size:12px;font-variant:normal;font-weight:normal;writing-mode:lr;fill:#7f7f7f;fill-opacity:1;fill-rule:nonzero;stroke:none;font-family:Latin Modern Sans;-inkscape-font-specification:Latin Modern Sans;font-style:normal;font-stretch:normal;text-anchor:start;text-align:start;line-height:125%"
         x="23.021101 28.5811 34.141102 39.701099 45.261101"
         y="-332.66"
         sodipodi:role="line"
         id="tspan324">40000</tspan><tspan
         style="font-size:12px;font-variant:normal;font-weight:normal;writing-mode:lr;fill:#7f7f7f;fill-opacity:1;fill-rule:nonzero;stroke:none;font-family:Latin Modern Sans;-inkscape-font-specification:Latin Modern Sans;font-style:normal;font-stretch:normal;text-anchor:start;text-align:start;line-height:125%"
         x="23.021101 28.5811 34.141102 39.701099 45.261101"
         y="-471.87"
         sodipodi:role="line"
         id="tspan326">60000</tspan></text>
<path
       inkscape:connector-curvature="0"
       id="path328"
       style="fill:none;stroke:#7f7f7f;stroke-width:1.06000006;stroke-linecap:butt;stroke-linejoin:round;stroke-miterlimit:10;stroke-opacity:1;stroke-dasharray:none"
       d="m 53.65,57.8398 4.25,0" /><path
       inkscape:connector-curvature="0"
       id="path330"
       style="fill:none;stroke:#7f7f7f;stroke-width:1.06000006;stroke-linecap:butt;stroke-linejoin:round;stroke-miterlimit:10;stroke-opacity:1;stroke-dasharray:none"
       d="m 53.65,197.05 4.25,0" /><path
       inkscape:connector-curvature="0"
       id="path332"
       style="fill:none;stroke:#7f7f7f;stroke-width:1.06000006;stroke-linecap:butt;stroke-linejoin:round;stroke-miterlimit:10;stroke-opacity:1;stroke-dasharray:none"
       d="m 53.65,336.25 4.25,0" /><path
       inkscape:connector-curvature="0"
       id="path334"
       style="fill:none;stroke:#7f7f7f;stroke-width:1.06000006;stroke-linecap:butt;stroke-linejoin:round;stroke-miterlimit:10;stroke-opacity:1;stroke-dasharray:none"
       d="m 53.65,475.46 4.25,0" /><path
       inkscape:connector-curvature="0"
       id="path336"
       style="fill:none;stroke:#7f7f7f;stroke-width:1.06000006;stroke-linecap:butt;stroke-linejoin:round;stroke-miterlimit:10;stroke-opacity:1;stroke-dasharray:none"
       d="m 81.95,33.0301 0,4.25" /><path
       inkscape:connector-curvature="0"
       id="path338"
       style="fill:none;stroke:#7f7f7f;stroke-width:1.06000006;stroke-linecap:butt;stroke-linejoin:round;stroke-miterlimit:10;stroke-opacity:1;stroke-dasharray:none"
       d="m 151.33,33.0301 0,4.25" /><path
       inkscape:connector-curvature="0"
       id="path340"
       style="fill:none;stroke:#7f7f7f;stroke-width:1.06000006;stroke-linecap:butt;stroke-linejoin:round;stroke-miterlimit:10;stroke-opacity:1;stroke-dasharray:none"
       d="m 220.71,33.0301 0,4.25" /><path
       inkscape:connector-curvature="0"
       id="path342"
       style="fill:none;stroke:#7f7f7f;stroke-width:1.06000006;stroke-linecap:butt;stroke-linejoin:round;stroke-miterlimit:10;stroke-opacity:1;stroke-dasharray:none"
       d="m 290.09,33.0301 0,4.25" /><path
       inkscape:connector-curvature="0"
       id="path344"
       style="fill:none;stroke:#7f7f7f;stroke-width:1.06000006;stroke-linecap:butt;stroke-linejoin:round;stroke-miterlimit:10;stroke-opacity:1;stroke-dasharray:none"
       d="m 359.47,33.0301 0,4.25" /><text
       transform="scale(1,-1)"
       id="text348"
       x="72.220703"
       y="-23.019899"
       style="-inkscape-font-specification:Latin Modern Sans;font-family:Latin Modern Sans;font-weight:normal;font-style:normal;font-stretch:normal;font-variant:normal;font-size:12px;text-anchor:start;text-align:start;writing-mode:lr;line-height:125%"
       sodipodi:linespacing="125%"><tspan
         style="font-size:12px;font-variant:normal;font-weight:normal;writing-mode:lr;fill:#7f7f7f;fill-opacity:1;fill-rule:nonzero;stroke:none;font-family:Latin Modern Sans;-inkscape-font-specification:Latin Modern Sans;font-style:normal;font-stretch:normal;text-anchor:start;text-align:start;line-height:125%"
         x="72.220703 77.780701 80.560699 86.120697 141.6004 147.1604 149.9404 155.5004 210.9805 216.5405 219.3205 224.88051 280.3606 285.92059 288.70059 294.26059 349.74069 355.30069 358.08069 363.64072"
         y="-23.019899"
         sodipodi:role="line"
         id="tspan350">0.000.250.500.751.00</tspan></text>
<text
       transform="scale(1,-1)"
       id="text354"
       x="112.33"
       y="-10.8"
       sodipodi:linespacing="125%"><tspan
         style="font-size:12px;font-variant:normal;font-weight:normal;writing-mode:lr;fill:#000000;fill-opacity:1;fill-rule:nonzero;stroke:none;font-family:Latin Modern Sans Quotation;-inkscape-font-specification:Latin Modern Sans Quotation;font-style:normal;font-stretch:normal;text-anchor:start;text-align:start;line-height:125%"
         x="112.33 119.7339 126.40591 130.4019 136.4019 143.0739 149.7459 153.08191 159.75391 166.4259 173.0979 176.4339 183.1059 186.44189 189.77791 196.44991 202.44991 209.1219 213.1179 219.1179 222.4539 229.12592 235.7979 242.46991 248.46991 251.80591 261.80191 268.47391 275.1459 278.4819 281.1459 287.8179 294.4899 297.8259 304.49789 311.16989 313.83389 316.49789 322.49789"
         y="-10.8"
         sodipodi:role="line"
         id="tspan356">Percentage of users apps meeting policy</tspan></text>
<text
       transform="matrix(0,1,1,0,0,0)"
       id="text358"
       x="234.42999"
       y="19.419901"
       sodipodi:linespacing="125%"><tspan
         style="font-size:12px;font-variant:normal;font-weight:600;writing-mode:lr;fill:#000000;fill-opacity:1;fill-rule:nonzero;stroke:none;font-family:Latin Modern Sans Demi Cond;-inkscape-font-specification:Latin Modern Sans Demi Cond Semi-Bold;font-style:normal;font-stretch:normal;text-anchor:start;text-align:start;line-height:125%"
         x="234.42999 243.09399 249.09399 255.76601 259.76199 263.09799 269.09799 275.76999 282.44199 289.11398"
         y="19.419901"
         sodipodi:role="line"
         id="tspan360">User count</tspan></text>
<path
       inkscape:connector-curvature="0"
       id="path362"
       style="fill:#ffffff;fill-opacity:1;fill-rule:nonzero;stroke:none"
       d="m 393.56,218.88 86,0 0,89.1199 -86,0 0,-89.1199 z" /><text
       transform="scale(1,-1)"
       id="text366"
       x="397.81"
       y="-296.57001"
       sodipodi:linespacing="125%"><tspan
         style="font-size:12px;font-variant:normal;font-weight:600;writing-mode:lr;fill:#000000;fill-opacity:1;fill-rule:nonzero;stroke:none;font-family:Latin Modern Sans Demi Cond;-inkscape-font-specification:Latin Modern Sans Demi Cond Semi-Bold;font-style:normal;font-stretch:normal;text-anchor:start;text-align:start;line-height:125%"
         sodipodi:role="line"
         id="tspan368"
         x="397.81"
         y="-296.57001">Policy</tspan></text>
<path
       inkscape:connector-curvature="0"
       id="path370"
       style="fill:#f2f2f2;fill-opacity:1;fill-rule:nonzero;stroke:none"
       d="m 397.81,274.97 17.2797,0 0,17.2801 -17.2797,0 0,-17.2801 z" /><path
       inkscape:connector-curvature="0"
       id="path372"
       style="fill:none;stroke:#ffffff;stroke-width:1.06000006;stroke-linecap:round;stroke-linejoin:round;stroke-miterlimit:10;stroke-opacity:1;stroke-dasharray:none"
       d="m 397.81,274.97 17.2797,0 0,17.2801 -17.2797,0 0,-17.2801 z" /><path
       inkscape:connector-curvature="0"
       id="path374"
       style="fill:#f8766d;fill-opacity:1;fill-rule:nonzero;stroke:none"
       d="m 397.81,274.97 17.2797,0 0,17.2801 -17.2797,0 0,-17.2801 z" /><path
       inkscape:connector-curvature="0"
       id="path376"
       style="fill:#f2f2f2;fill-opacity:1;fill-rule:nonzero;stroke:none"
       d="m 397.81,257.69 17.2797,0 0,17.2801 -17.2797,0 0,-17.2801 z" /><path
       inkscape:connector-curvature="0"
       id="path378"
       style="fill:none;stroke:#ffffff;stroke-width:1.06000006;stroke-linecap:round;stroke-linejoin:round;stroke-miterlimit:10;stroke-opacity:1;stroke-dasharray:none"
       d="m 397.81,257.69 17.2797,0 0,17.2801 -17.2797,0 0,-17.2801 z" /><path
       inkscape:connector-curvature="0"
       id="path380"
       style="fill:#7dae00;fill-opacity:1;fill-rule:nonzero;stroke:none"
       d="m 397.81,257.69 17.2797,0 0,17.2801 -17.2797,0 0,-17.2801 z" /><path
       inkscape:connector-curvature="0"
       id="path382"
       style="fill:#f2f2f2;fill-opacity:1;fill-rule:nonzero;stroke:none"
       d="m 397.81,240.41 17.2797,0 0,17.2797 -17.2797,0 0,-17.2797 z" /><path
       inkscape:connector-curvature="0"
       id="path384"
       style="fill:none;stroke:#ffffff;stroke-width:1.06000006;stroke-linecap:round;stroke-linejoin:round;stroke-miterlimit:10;stroke-opacity:1;stroke-dasharray:none"
       d="m 397.81,240.41 17.2797,0 0,17.2797 -17.2797,0 0,-17.2797 z" /><path
       inkscape:connector-curvature="0"
       id="path386"
       style="fill:#00bfc4;fill-opacity:1;fill-rule:nonzero;stroke:none"
       d="m 397.81,240.41 17.2797,0 0,17.2797 -17.2797,0 0,-17.2797 z" /><path
       inkscape:connector-curvature="0"
       id="path388"
       style="fill:#f2f2f2;fill-opacity:1;fill-rule:nonzero;stroke:none"
       d="m 397.81,223.13 17.2797,0 0,17.2801 -17.2797,0 0,-17.2801 z" /><path
       inkscape:connector-curvature="0"
       id="path390"
       style="fill:none;stroke:#ffffff;stroke-width:1.06000006;stroke-linecap:round;stroke-linejoin:round;stroke-miterlimit:10;stroke-opacity:1;stroke-dasharray:none"
       d="m 397.81,223.13 17.2797,0 0,17.2801 -17.2797,0 0,-17.2801 z" /><path
       inkscape:connector-curvature="0"
       id="path392"
       style="fill:#c77bff;fill-opacity:1;fill-rule:nonzero;stroke:none"
       d="m 397.81,223.13 17.2797,0 0,17.2801 -17.2797,0 0,-17.2801 z" /><text
       transform="scale(1,-1)"
       id="text396"
       x="417.25"
       y="-280.01999"
       style="-inkscape-font-specification:Latin Modern Sans;font-family:Latin Modern Sans;font-weight:normal;font-style:normal;font-stretch:normal;font-variant:normal;font-size:12px;text-anchor:start;text-align:start;writing-mode:lr;line-height:125%"
       sodipodi:linespacing="125%"><tspan
         style="font-size:12px;font-variant:normal;font-weight:normal;writing-mode:lr;fill:#000000;fill-opacity:1;fill-rule:nonzero;stroke:none;font-family:Latin Modern Sans;-inkscape-font-specification:Latin Modern Sans;font-style:normal;font-stretch:normal;text-anchor:start;text-align:start;line-height:125%"
         x="417.25 422.25 427.81 433.37 438.37 443.92999 447.56015 452.31015 457.87015 460.65015 462.87015 467.6203"
         y="-280.01999"
         sodipodi:role="line"
         id="tspan398">conservative</tspan><tspan
         style="font-size:12px;font-variant:normal;font-weight:normal;writing-mode:lr;fill:#000000;fill-opacity:1;fill-rule:nonzero;stroke:none;font-family:Latin Modern Sans;-inkscape-font-specification:Latin Modern Sans;font-style:normal;font-stretch:normal;text-anchor:start;text-align:start;line-height:125%"
         x="417.25 422.81 428.37 433.1199 438.6799 444.2399 449.2399 454.7999"
         y="-262.7399"
         sodipodi:role="line"
         id="tspan400">advanced</tspan><tspan
         style="font-size:12px;font-variant:normal;font-weight:normal;writing-mode:lr;fill:#000000;fill-opacity:1;fill-rule:nonzero;stroke:none;font-family:Latin Modern Sans;-inkscape-font-specification:Latin Modern Sans;font-style:normal;font-stretch:normal;text-anchor:start;text-align:start;line-height:125%"
         x="417.25 419.7301 425.2901 430.8501 435.8501 441.4101 446.4101 448.6301 451.4101 454.19009 459.75009"
         y="-245.45979"
         sodipodi:role="line"
         id="tspan402">fencesitter</tspan><tspan
         style="font-size:12px;font-variant:normal;font-weight:normal;writing-mode:lr;fill:#000000;fill-opacity:1;fill-rule:nonzero;stroke:none;font-family:Latin Modern Sans;-inkscape-font-specification:Latin Modern Sans;font-style:normal;font-stretch:normal;text-anchor:start;text-align:start;line-height:125%"
         x="417.25 422.81 428.37 433.37 438.92999 444.48999 449.48999 455.04999 458.6301 464.19009 469.75009"
         y="-228.1797"
         sodipodi:role="line"
         id="tspan404">unconcerned</tspan></text>
</g></svg>